<?xml version="1.0" encoding="iso-8859-1"?>

<svg fill="#000000" version="1.1" id="Capa_1" xmlns="http://www.w3.org/2000/svg" xmlns:xlink="http://www.w3.org/1999/xlink" 
	 width="800px" height="800px" viewBox="0 0 943.878 943.878"
	 xml:space="preserve">
<g>
	<g>
		<path d="M175.855,624.046c48.5,107.2,95.6,203.7,211,251.9c113.4,47.4,238.1,26.9,329.2-42.8l100.1,69.2
			c14.601,10.1,34.7,6.5,44.8-8.2l77.2-111.7c10.101-14.6,6.5-34.7-8.2-44.8l-99.5-68.8c49.801-160.9-31.8-338-190.399-404.3
			l-116-48.5l-9.2,22c-5.4,13-20.3,19.1-33.3,13.7l-56.601-23.8c-13-5.4-19.1-20.3-13.699-33.3l9.199-22l-323.8-135.2
			c-10.7-4.5-23,0.6-27.4,11.3c-15.6,37.4-49.7,119.1-65.5,156.7c-5.2,12.6-5,26.7,0.6,39.1
			C33.056,308.147,125.556,512.747,175.855,624.046z M855.056,751.947c19.8,13.7,24.8,40.9,11.1,60.7s-40.899,24.8-60.7,11.1
			c-19.8-13.7-24.8-40.899-11.1-60.7C808.056,743.147,835.256,738.247,855.056,751.947z M353.455,505.747
			c40.9-98,153.5-144.2,251.5-103.3c78.4,32.8,123.7,111.5,117.601,191.8c-1.5,20-6.2,40.2-14.4,59.7
			c-20.2,48.3-57.8,84-102.5,102.9c-45.899,19.399-99.3,21.1-149,0.3C358.756,716.347,312.556,603.747,353.455,505.747z"/>
	</g>
</g>
</svg>