<svg width="33" height="32" viewBox="0 0 33 32" fill="none" xmlns="http://www.w3.org/2000/svg">
<path d="M12.85 16C12.85 13.975 14.4921 12.333 16.5183 12.333C18.5445 12.333 20.1875 13.975 20.1875 16C20.1875 18.025 18.5445 19.667 16.5183 19.667C14.4921 19.667 12.85 18.025 12.85 16ZM10.8666 16C10.8666 19.1196 13.3968 21.6484 16.5183 21.6484C19.6398 21.6484 22.1701 19.1196 22.1701 16C22.1701 12.8804 19.6398 10.3516 16.5183 10.3516C13.3968 10.3516 10.8666 12.8804 10.8666 16ZM21.073 10.1277C21.0729 10.3887 21.1503 10.644 21.2953 10.8611C21.4404 11.0782 21.6466 11.2475 21.8879 11.3475C22.1292 11.4475 22.3947 11.4738 22.651 11.4229C22.9072 11.3721 23.1426 11.2465 23.3274 11.062C23.5122 10.8774 23.6381 10.6423 23.6891 10.3862C23.7402 10.1302 23.7141 9.86478 23.6143 9.62355C23.5144 9.38231 23.3452 9.17608 23.1281 9.03095C22.9109 8.88582 22.6556 8.8083 22.3943 8.8082H22.3938C22.0437 8.80836 21.7079 8.94741 21.4602 9.19481C21.2126 9.44221 21.0733 9.77773 21.073 10.1277V10.1277ZM12.0717 24.9537C10.9986 24.9049 10.4153 24.7263 10.0277 24.5753C9.51381 24.3754 9.14715 24.1373 8.76166 23.7525C8.37616 23.3678 8.13754 23.0017 7.93837 22.4882C7.78727 22.101 7.60852 21.5179 7.55974 20.4454C7.50638 19.2859 7.49572 18.9376 7.49572 16.0001C7.49572 13.0626 7.50726 12.7152 7.55974 11.5548C7.60861 10.4823 7.78868 9.90037 7.93837 9.51202C8.13842 8.99846 8.37669 8.63202 8.76166 8.24676C9.14663 7.8615 9.51293 7.62302 10.0277 7.42396C10.4151 7.27295 10.9986 7.09431 12.0717 7.04556C13.2318 6.99223 13.5803 6.98158 16.5183 6.98158C19.4563 6.98158 19.8052 6.99311 20.9663 7.04556C22.0394 7.0944 22.6217 7.27436 23.0103 7.42396C23.5242 7.62302 23.8908 7.86202 24.2763 8.24676C24.6618 8.6315 24.8995 8.99846 25.0996 9.51202C25.2507 9.89922 25.4294 10.4823 25.4782 11.5548C25.5316 12.7152 25.5422 13.0626 25.5422 16.0001C25.5422 18.9376 25.5316 19.285 25.4782 20.4454C25.4294 21.5179 25.2497 22.1008 25.0996 22.4882C24.8995 23.0017 24.6613 23.3682 24.2763 23.7525C23.8913 24.1369 23.5242 24.3754 23.0103 24.5753C22.6228 24.7263 22.0394 24.905 20.9663 24.9537C19.8061 25.0071 19.4576 25.0177 16.5183 25.0177C13.579 25.0177 13.2315 25.0071 12.0717 24.9537V24.9537ZM11.9805 5.06662C10.8088 5.11994 10.0081 5.30562 9.30891 5.57754C8.58476 5.85835 7.97174 6.23508 7.35915 6.84633C6.74657 7.45758 6.37059 8.0712 6.08961 8.79491C5.81753 9.49416 5.63173 10.2939 5.57837 11.4649C5.52413 12.6378 5.51172 13.0128 5.51172 16C5.51172 18.9872 5.52413 19.3622 5.57837 20.5351C5.63173 21.7062 5.81753 22.5058 6.08961 23.2051C6.37059 23.9284 6.74666 24.5427 7.35915 25.1537C7.97165 25.7647 8.58476 26.1409 9.30891 26.4225C10.0095 26.6944 10.8088 26.8801 11.9805 26.9334C13.1547 26.9867 13.5293 27 16.5183 27C19.5074 27 19.8826 26.9876 21.0561 26.9334C22.2279 26.8801 23.0281 26.6944 23.7277 26.4225C24.4514 26.1409 25.0649 25.7649 25.6775 25.1537C26.2901 24.5424 26.6653 23.9284 26.947 23.2051C27.2191 22.5058 27.4058 21.7061 27.4583 20.5351C27.5116 19.3613 27.524 18.9872 27.524 16C27.524 13.0128 27.5116 12.6378 27.4583 11.4649C27.4049 10.2938 27.2191 9.49372 26.947 8.79491C26.6653 8.07164 26.2891 7.45854 25.6775 6.84633C25.0659 6.23411 24.4514 5.85835 23.7286 5.57754C23.0281 5.30562 22.2278 5.11906 21.057 5.06662C19.8834 5.01329 19.5082 5 16.5192 5C13.5302 5 13.1547 5.01241 11.9805 5.06662Z" fill="url(#paint0_radial_4201_383726)"/>
<path d="M12.85 16C12.85 13.975 14.4921 12.333 16.5183 12.333C18.5445 12.333 20.1875 13.975 20.1875 16C20.1875 18.025 18.5445 19.667 16.5183 19.667C14.4921 19.667 12.85 18.025 12.85 16ZM10.8666 16C10.8666 19.1196 13.3968 21.6484 16.5183 21.6484C19.6398 21.6484 22.1701 19.1196 22.1701 16C22.1701 12.8804 19.6398 10.3516 16.5183 10.3516C13.3968 10.3516 10.8666 12.8804 10.8666 16ZM21.073 10.1277C21.0729 10.3887 21.1503 10.644 21.2953 10.8611C21.4404 11.0782 21.6466 11.2475 21.8879 11.3475C22.1292 11.4475 22.3947 11.4738 22.651 11.4229C22.9072 11.3721 23.1426 11.2465 23.3274 11.062C23.5122 10.8774 23.6381 10.6423 23.6891 10.3862C23.7402 10.1302 23.7141 9.86478 23.6143 9.62355C23.5144 9.38231 23.3452 9.17608 23.1281 9.03095C22.9109 8.88582 22.6556 8.8083 22.3943 8.8082H22.3938C22.0437 8.80836 21.7079 8.94741 21.4602 9.19481C21.2126 9.44221 21.0733 9.77773 21.073 10.1277V10.1277ZM12.0717 24.9537C10.9986 24.9049 10.4153 24.7263 10.0277 24.5753C9.51381 24.3754 9.14715 24.1373 8.76166 23.7525C8.37616 23.3678 8.13754 23.0017 7.93837 22.4882C7.78727 22.101 7.60852 21.5179 7.55974 20.4454C7.50638 19.2859 7.49572 18.9376 7.49572 16.0001C7.49572 13.0626 7.50726 12.7152 7.55974 11.5548C7.60861 10.4823 7.78868 9.90037 7.93837 9.51202C8.13842 8.99846 8.37669 8.63202 8.76166 8.24676C9.14663 7.8615 9.51293 7.62302 10.0277 7.42396C10.4151 7.27295 10.9986 7.09431 12.0717 7.04556C13.2318 6.99223 13.5803 6.98158 16.5183 6.98158C19.4563 6.98158 19.8052 6.99311 20.9663 7.04556C22.0394 7.0944 22.6217 7.27436 23.0103 7.42396C23.5242 7.62302 23.8908 7.86202 24.2763 8.24676C24.6618 8.6315 24.8995 8.99846 25.0996 9.51202C25.2507 9.89922 25.4294 10.4823 25.4782 11.5548C25.5316 12.7152 25.5422 13.0626 25.5422 16.0001C25.5422 18.9376 25.5316 19.285 25.4782 20.4454C25.4294 21.5179 25.2497 22.1008 25.0996 22.4882C24.8995 23.0017 24.6613 23.3682 24.2763 23.7525C23.8913 24.1369 23.5242 24.3754 23.0103 24.5753C22.6228 24.7263 22.0394 24.905 20.9663 24.9537C19.8061 25.0071 19.4576 25.0177 16.5183 25.0177C13.579 25.0177 13.2315 25.0071 12.0717 24.9537V24.9537ZM11.9805 5.06662C10.8088 5.11994 10.0081 5.30562 9.30891 5.57754C8.58476 5.85835 7.97174 6.23508 7.35915 6.84633C6.74657 7.45758 6.37059 8.0712 6.08961 8.79491C5.81753 9.49416 5.63173 10.2939 5.57837 11.4649C5.52413 12.6378 5.51172 13.0128 5.51172 16C5.51172 18.9872 5.52413 19.3622 5.57837 20.5351C5.63173 21.7062 5.81753 22.5058 6.08961 23.2051C6.37059 23.9284 6.74666 24.5427 7.35915 25.1537C7.97165 25.7647 8.58476 26.1409 9.30891 26.4225C10.0095 26.6944 10.8088 26.8801 11.9805 26.9334C13.1547 26.9867 13.5293 27 16.5183 27C19.5074 27 19.8826 26.9876 21.0561 26.9334C22.2279 26.8801 23.0281 26.6944 23.7277 26.4225C24.4514 26.1409 25.0649 25.7649 25.6775 25.1537C26.2901 24.5424 26.6653 23.9284 26.947 23.2051C27.2191 22.5058 27.4058 21.7061 27.4583 20.5351C27.5116 19.3613 27.524 18.9872 27.524 16C27.524 13.0128 27.5116 12.6378 27.4583 11.4649C27.4049 10.2938 27.2191 9.49372 26.947 8.79491C26.6653 8.07164 26.2891 7.45854 25.6775 6.84633C25.0659 6.23411 24.4514 5.85835 23.7286 5.57754C23.0281 5.30562 22.2278 5.11906 21.057 5.06662C19.8834 5.01329 19.5082 5 16.5192 5C13.5302 5 13.1547 5.01241 11.9805 5.06662Z" fill="url(#paint1_radial_4201_383726)"/>
<defs>
<radialGradient id="paint0_radial_4201_383726" cx="0" cy="0" r="1" gradientUnits="userSpaceOnUse" gradientTransform="translate(8.4363 27.1039) scale(28.7364 28.7192)">
<stop offset="0.09" stop-color="#FA8F21"/>
<stop offset="0.78" stop-color="#D82D7E"/>
</radialGradient>
<radialGradient id="paint1_radial_4201_383726" cx="0" cy="0" r="1" gradientUnits="userSpaceOnUse" gradientTransform="translate(18.8618 28.0895) scale(22.6482 22.6347)">
<stop offset="0.64" stop-color="#8C3AAA" stop-opacity="0"/>
<stop offset="1" stop-color="#8C3AAA"/>
</radialGradient>
</defs>
</svg>
