<svg width="33" height="32" viewBox="0 0 33 32" fill="none" xmlns="http://www.w3.org/2000/svg">
<path fill-rule="evenodd" clip-rule="evenodd" d="M21.3453 12.9496C22.8179 13.9965 24.5814 14.5559 26.3882 14.5491V10.9683C26.033 10.9693 25.6788 10.9312 25.3319 10.8549V13.7076C23.521 13.7108 21.7549 13.1451 20.283 12.0903V19.4548C20.2785 20.6632 19.9471 21.8479 19.3239 22.8833C18.7007 23.9187 17.8089 24.7661 16.7431 25.3357C15.6773 25.9053 14.4773 26.1759 13.2701 26.1187C12.063 26.0615 10.8939 25.6787 9.88672 25.011C10.8183 25.9536 12.0087 26.5985 13.3072 26.8642C14.6056 27.1298 15.9536 27.0041 17.1806 26.5031C18.4075 26.0021 19.4582 25.1483 20.1996 24.0497C20.941 22.9512 21.3397 21.6574 21.3453 20.3321V12.9496ZM22.6523 9.29724C21.9034 8.48553 21.4439 7.44902 21.3453 6.34905V5.88354H20.3426C20.4666 6.58274 20.7363 7.24803 21.1342 7.83616C21.5321 8.42429 22.0493 8.92211 22.6523 9.29724ZM12.2083 22.1762C11.8608 21.7217 11.6478 21.1789 11.5936 20.6094C11.5394 20.0399 11.6462 19.4666 11.9018 18.9548C12.1574 18.443 12.5515 18.0133 13.0393 17.7144C13.5272 17.4156 14.0891 17.2597 14.6611 17.2645C14.9769 17.2644 15.2909 17.3127 15.5921 17.4077V13.7076C15.24 13.661 14.8849 13.641 14.5298 13.6479V16.5245C13.7964 16.2926 13.0026 16.3454 12.3063 16.6721C11.61 16.9989 11.0623 17.5758 10.7719 18.2881C10.4816 19.0003 10.47 19.7958 10.7395 20.5162C11.0089 21.2366 11.5397 21.8292 12.2262 22.1762H12.2083Z" fill="#EE1D52"/>
<path fill-rule="evenodd" clip-rule="evenodd" d="M20.283 12.0664C21.755 13.1212 23.5211 13.6869 25.332 13.6837V10.831C24.3002 10.6129 23.363 10.0764 22.6523 9.29724C22.0494 8.92211 21.5322 8.42429 21.1343 7.83616C20.7364 7.24803 20.4667 6.58274 20.3427 5.88354H17.7049V20.3321C17.7024 20.9716 17.4997 21.5943 17.1253 22.1128C16.7509 22.6313 16.2235 23.0194 15.6171 23.2229C15.0108 23.4263 14.356 23.4347 13.7446 23.247C13.1333 23.0593 12.596 22.6848 12.2083 22.1762C11.594 21.8662 11.1019 21.3582 10.8116 20.7343C10.5214 20.1103 10.4497 19.4068 10.6084 18.7371C10.767 18.0675 11.1466 17.4708 11.6859 17.0434C12.2252 16.616 12.8928 16.3827 13.581 16.3812C13.8967 16.3823 14.2105 16.4305 14.512 16.5245V13.6479C13.2095 13.6792 11.9445 14.09 10.8723 14.8301C9.80007 15.5702 8.96725 16.6072 8.47608 17.8139C7.9849 19.0206 7.85675 20.3445 8.10736 21.623C8.35796 22.9015 8.97642 24.079 9.8868 25.011C10.8942 25.6835 12.0652 26.0703 13.275 26.1299C14.4848 26.1896 15.6882 25.92 16.7568 25.3498C17.8255 24.7796 18.7196 23.9303 19.3437 22.8921C19.9678 21.854 20.2986 20.666 20.3009 19.4548L20.283 12.0664Z" fill="black"/>
<path fill-rule="evenodd" clip-rule="evenodd" d="M25.3325 10.8307V10.0609C24.385 10.0649 23.4558 9.79999 22.6529 9.29695C23.3617 10.0784 24.2998 10.6153 25.3325 10.8307ZM20.3433 5.88326C20.3433 5.746 20.3015 5.60277 20.2836 5.4655V5H16.6431V19.4545C16.64 20.2638 16.3158 21.0389 15.7418 21.6095C15.1679 22.1801 14.3909 22.4997 13.5815 22.4982C13.105 22.5005 12.6346 22.3901 12.2089 22.1759C12.5966 22.6845 13.1338 23.059 13.7452 23.2467C14.3566 23.4345 15.0114 23.426 15.6177 23.2226C16.224 23.0192 16.7514 22.631 17.1259 22.1125C17.5003 21.594 17.703 20.9713 17.7054 20.3318V5.88326H20.3433ZM14.5126 13.6417V12.824C13.0145 12.6205 11.4917 12.9304 10.1924 13.7032C8.89298 14.4759 7.89364 15.666 7.35721 17.0794C6.82077 18.4928 6.77887 20.0462 7.23833 21.4865C7.6978 22.9268 8.63153 24.169 9.88736 25.0107C8.98387 24.0765 8.372 22.8995 8.12651 21.6233C7.88102 20.3471 8.01254 19.0271 8.505 17.8244C8.99745 16.6218 9.82953 15.5886 10.8996 14.8511C11.9696 14.1136 13.2313 13.7037 14.5305 13.6715L14.5126 13.6417Z" fill="#69C9D0"/>
</svg>
