<svg width="32" height="32" viewBox="0 0 32 32" fill="none" xmlns="http://www.w3.org/2000/svg">
<path d="M27.4998 10.6297C27.2249 9.59617 26.4117 8.78086 25.377 8.50144C23.5062 8 16 8 16 8C16 8 8.49761 8 6.62297 8.50144C5.59211 8.77703 4.77887 9.59234 4.50016 10.6297C4 12.5053 4 16.4211 4 16.4211C4 16.4211 4 20.3368 4.50016 22.2124C4.77506 23.2459 5.58829 24.0612 6.62297 24.3407C8.49761 24.8421 16 24.8421 16 24.8421C16 24.8421 23.5062 24.8421 25.377 24.3407C26.4079 24.0651 27.2211 23.2498 27.4998 22.2124C28 20.3368 28 16.4211 28 16.4211C28 16.4211 28 12.5053 27.4998 10.6297Z" fill="#FF3000"/>
<path d="M13.6023 20.0306L19.8371 16.4211L13.6023 12.8115V20.0306Z" fill="white"/>
</svg>
