<svg data-name="Capa 2" viewBox="0 0 400 113.56" xmlns="http://www.w3.org/2000/svg"><path d="M177.09 70.45v12.3H148.7l-5.68-6.41c-.95-1.05-1.47-2.52-1.47-3.89V21.66h12.72v48.79h22.82Zm96.84 0v12.3h-28.39l-5.68-6.41c-.95-1.05-1.47-2.52-1.47-3.89V21.66h12.72v48.79h22.82Zm7.15-48.79h12.72v61.09h-12.72zm-59.3 17.56-3.37-13.25c-.63-2.52-2.94-4.31-5.57-4.31h-14.82l-4.52 17.56-9.57 37.54c-.21.84-.32 1.68-.32 2.52v3.47h11.36l2.42-9.25 18.93-9.04 4.73 18.29h10.62v-5.57l-9.88-37.96Zm-21.34 22.4 5.78-22.5 1.79-6.94 1.79 6.94 5.78 22.5h-15.14Zm189.78-22.4-3.36-13.25c-.63-2.52-2.94-4.31-5.57-4.31h-14.83l-4.52 17.56-9.67 37.54c-.21.84-.32 1.68-.32 2.52v3.47h11.36l2.42-9.25 18.93-9.04 4.73 18.29h10.62v-5.57l-9.78-37.96Zm-21.45 22.4 5.78-22.5 1.79-6.94 1.79 6.94 5.78 22.5h-15.14Zm-20.92-.95v3.05c0 10.83-8.73 19.56-19.56 19.56h-5.89c-2.42 0-4.73-.42-6.83-1.26-7.46-2.73-12.72-9.99-12.72-18.29v-22.4c0-.74 0-1.47.11-2.1.84-7.47 5.78-13.67 12.62-16.19 2.1-.84 4.42-1.26 6.83-1.26h5.89c10.09 0 18.4 7.68 19.45 17.45h-12.41v-1.47c0-2.42-1.89-4.31-4.31-4.31h-11.14c-2.42 0-4.31 1.89-4.31 4.31v29.33c0 2.42 1.89 4.31 4.31 4.31h11.14c2.42 0 4.31-1.89 4.31-4.31V59.2h-10.73V47.11h14.72l.21.21 5.36 5.78c1.9 2 2.95 4.73 2.95 7.57Zm-322.8-6.2h25.34L11.8 74.03l-.31-.53-8.41-11.15c-4-5.26-4.1-12.51-.32-17.88L34.52 0h29.33l-38.8 54.47Zm32.91 36.17h29.65L42.4 113.56l-.21-.32-9.99-13.14c-4-5.15-4.1-12.3-.32-17.66L89.3 0h31.86L57.97 90.64Z" style="fill:#ff4b44" data-name="Capa 1"/></svg>